HIERARCHY
ROOT Hips
{
	OFFSET 0.000000 0.000000 0.000000
	CHANNELS 6 Xposition Yposition Zposition Zrotation Yrotation Xrotation 
	JOINT LHipJoint
	{
		OFFSET 0.000000 0.000000 0.000000
		CHANNELS 3 Zrotation Yrotation Xrotation
		JOINT LeftUpLeg
		{
			OFFSET 1.363060 -1.794630 0.839290
			CHANNELS 3 Zrotation Yrotation Xrotation
			JOINT LeftLeg
			{
				OFFSET 2.448110 -6.726130 0.000000
				CHANNELS 3 Zrotation Yrotation Xrotation
				JOINT LeftFoot
				{
					OFFSET 2.562200 -7.039590 0.000000
					CHANNELS 3 Zrotation Yrotation Xrotation
					JOINT LeftToeBase
					{
						OFFSET 0.157640 -0.433110 2.322550
						CHANNELS 3 Zrotation Yrotation Xrotation
						End Site
						{
							OFFSET 0.000000 0.000000 0.000000
						}
					}
				}
			}
		}
	}
	JOINT RHipJoint
	{
		OFFSET 0.000000 0.000000 0.000000
		CHANNELS 3 Zrotation Yrotation Xrotation
		JOINT RightUpLeg
		{
			OFFSET -1.305520 -1.794630 0.839290
			CHANNELS 3 Zrotation Yrotation Xrotation
			JOINT RightLeg
			{
				OFFSET -2.542530 -6.985550 0.000000
				CHANNELS 3 Zrotation Yrotation Xrotation
				JOINT RightFoot
				{
					OFFSET -2.568260 -7.056230 0.000000
					CHANNELS 3 Zrotation Yrotation Xrotation
					JOINT RightToeBase
					{
						OFFSET -0.164730 -0.452590 2.363150
						CHANNELS 3 Zrotation Yrotation Xrotation
						End Site
						{
							OFFSET 0.000000 0.000000 0.000000
						}
					}
				}
			}
		}
	}
	JOINT LowerBack
	{
		OFFSET 0.000000 0.000000 0.000000
		CHANNELS 3 Zrotation Yrotation Xrotation
		JOINT Spine
		{
			OFFSET 0.028270 2.035590 -0.193380
			CHANNELS 3 Zrotation Yrotation Xrotation
			JOINT Spine1
			{
				OFFSET 0.056720 2.048850 -0.042750
				CHANNELS 3 Zrotation Yrotation Xrotation
				JOINT Neck
				{
					OFFSET 0.000000 0.000000 0.000000
					CHANNELS 3 Zrotation Yrotation Xrotation
					JOINT Neck1
					{
						OFFSET -0.054170 1.746240 0.172020
						CHANNELS 3 Zrotation Yrotation Xrotation
						JOINT Head
						{
							OFFSET 0.104070 1.761360 -0.123970
							CHANNELS 3 Zrotation Yrotation Xrotation
							End Site
							{
								OFFSET 0.000000 0.000000 0.000000
							}
						}
					}
				}
				JOINT LeftShoulder
				{
					OFFSET 0.000000 0.000000 0.000000
					CHANNELS 3 Zrotation Yrotation Xrotation
					JOINT LeftArm
					{
						OFFSET 3.362410 1.200890 -0.311210
						CHANNELS 3 Zrotation Yrotation Xrotation
						JOINT LeftForeArm
						{
							OFFSET 4.983000 -0.000000 -0.000000
							CHANNELS 3 Zrotation Yrotation Xrotation
							JOINT LeftHand
							{
								OFFSET 3.483560 -0.000000 -0.000000
								CHANNELS 3 Zrotation Yrotation Xrotation
								JOINT LeftFingerBase
								{
									OFFSET 0.000000 0.000000 0.000000
									CHANNELS 3 Zrotation Yrotation Xrotation
									JOINT LeftHandIndex1
									{
										OFFSET 0.715260 -0.000000 -0.000000
										CHANNELS 3 Zrotation Yrotation Xrotation
										End Site
										{
											OFFSET 0.000000 0.000000 0.000000
										}
									}
								}
								JOINT LThumb
								{
									OFFSET 0.000000 0.000000 0.000000
									CHANNELS 3 Zrotation Yrotation Xrotation
									End Site
									{
										OFFSET 0.000000 0.000000 0.000000
									}
								}
							}
						}
					}
				}
				JOINT RightShoulder
				{
					OFFSET 0.000000 0.000000 0.000000
					CHANNELS 3 Zrotation Yrotation Xrotation
					JOINT RightArm
					{
						OFFSET -3.136600 1.374050 -0.404650
						CHANNELS 3 Zrotation Yrotation Xrotation
						JOINT RightForeArm
						{
							OFFSET -5.241900 -0.000000 -0.000000
							CHANNELS 3 Zrotation Yrotation Xrotation
							JOINT RightHand
							{
								OFFSET -3.444170 -0.000000 -0.000000
								CHANNELS 3 Zrotation Yrotation Xrotation
								JOINT RightFingerBase
								{
									OFFSET 0.000000 0.000000 0.000000
									CHANNELS 3 Zrotation Yrotation Xrotation
									JOINT RightHandIndex1
									{
										OFFSET -0.622530 -0.000000 -0.000000
										CHANNELS 3 Zrotation Yrotation Xrotation
										End Site
										{
											OFFSET 0.000000 0.000000 0.000000
										}
									}
								}
								JOINT RThumb
								{
									OFFSET 0.000000 0.000000 0.000000
									CHANNELS 3 Zrotation Yrotation Xrotation
									End Site
									{
										OFFSET 0.000000 0.000000 0.000000
									}
								}
							}
						}
					}
				}
			}
		}
	}
}
MOTION
Frames: 9
Frame Time: 0.008333
-1.081093 18.181403 5.553415 -2.313374 -5.744819 1.780052 -1.209491 4.296568 4.208276 -11.477964 -6.512343 10.683093 -1.949056 -5.122731 -11.045843 -6.607876 24.757971 -4.406704 0.002000 -0.291900 -0.802200 -1.619269 -4.291773 2.966387 18.170316 4.512469 3.570613 1.248819 0.546916 1.775720 1.207131 -6.701999 -7.184324 -0.163100 -2.602200 7.173200 4.830565 3.198687 -6.486357 -7.178751 3.692216 17.585476 -1.072178 2.154551 -9.693049 2.502437 -3.566296 -23.310425 6.807467 -6.221162 21.989305 0.466900 -1.929500 8.664300 3.231218 -7.737725 0.074139 -92.510067 5.666801 21.831639 22.459192 -31.622525 -6.034426 0.666053 0.248324 13.140170 5.721605 -26.782174 -2.351100 -7.125000 0.000000 0.000000 -14.852500 3.447800 14.434100 -3.655112 9.599167 2.467581 94.243352 -11.186534 24.757925 -29.573044 37.663685 -8.214112 1.161861 -2.509499 14.642472 -7.629726 -27.484291 4.054100 7.125000 0.000000 0.000000 21.189800 -54.219000 -4.970900 
-1.081791 18.180804 5.547625 -2.281895 -5.695970 1.722355 -1.212568 4.299557 4.213443 -11.502112 -6.463567 10.660177 -1.949842 -5.109515 -11.008572 -6.595315 24.719486 -4.330138 0.003400 -0.378600 -1.040300 -1.620530 -4.294877 2.973997 18.141753 4.456165 3.581821 1.247934 0.547792 1.777429 1.215538 -6.731896 -7.165435 -0.160900 -2.584700 7.124600 4.804689 3.176807 -6.427436 -7.193430 3.674245 17.667125 -1.061089 2.145636 -9.736434 2.496608 -3.565937 -23.317367 6.769601 -6.209246 21.915404 0.459900 -1.932000 8.646700 3.244961 -7.732978 0.068556 -92.554179 5.585758 21.687054 22.386321 -31.560089 -6.016594 0.674611 0.243558 13.277178 5.890129 -27.202918 -2.459400 -7.125000 0.000000 0.000000 -14.764600 3.025400 14.460600 -3.667523 9.589824 2.457495 94.261333 -11.141461 24.759450 -29.553354 37.647210 -8.191915 1.160664 -2.505956 14.725030 -7.554376 -27.280677 3.992400 7.125000 0.000000 0.000000 21.149200 -54.023300 -4.857600 
-1.084687 18.180504 5.542034 -2.224393 -5.605191 1.697738 -1.223784 4.293747 4.200035 -11.525090 -6.258294 10.558471 -1.943660 -5.099262 -10.982302 -6.546610 24.586027 -4.022061 0.007000 -0.541800 -1.488700 -1.629540 -4.296631 2.969584 18.103349 4.362785 3.569620 1.246543 0.547123 1.780612 1.207778 -6.704680 -7.191494 -0.166500 -2.629200 7.248000 4.748876 3.140831 -6.315327 -7.303715 3.635590 17.569574 -0.996782 2.129382 -9.784233 2.525994 -3.546057 -23.210571 6.791632 -6.184953 21.840357 0.468300 -1.922300 8.611000 3.257727 -7.730824 0.068062 -92.572131 5.365679 21.511186 22.084396 -31.242913 -5.884797 0.678252 0.239635 13.526056 6.193252 -27.298707 -2.608100 -7.125000 0.000000 0.000000 -14.591200 2.902100 14.312500 -3.649297 9.589952 2.464112 94.297984 -11.186151 24.792401 -29.570560 37.661785 -8.193054 1.158407 -2.504850 14.792004 -7.550620 -27.177480 3.975700 7.125000 0.000000 0.000000 21.095400 -53.929400 -4.795000 
-1.088081 18.181303 5.537542 -2.132454 -5.516754 1.794083 -1.288319 4.256927 4.118960 -11.532600 -6.051582 10.406520 -1.930981 -5.078049 -10.964678 -6.481449 24.417275 -3.712514 0.012500 -0.720800 -1.980900 -1.699914 -4.273219 2.873144 18.107702 4.258723 3.533100 1.246101 0.542291 1.782501 1.199889 -6.683882 -7.219130 -0.167500 -2.636400 7.268200 5.033821 3.170163 -5.700075 -8.026222 3.700754 16.586555 -0.958383 2.138735 -9.966375 2.610897 -3.583207 -22.989470 6.977060 -6.299680 22.080784 0.488500 -1.945100 8.615000 3.284085 -7.757918 0.134798 -92.328188 5.103577 21.612403 21.232903 -30.326178 -5.526838 0.696219 0.245121 13.722013 7.477668 -27.641344 -3.243000 -7.125000 0.000000 0.000000 -13.860200 2.420400 13.673700 -3.478678 9.611118 2.548539 94.566963 -11.562088 24.608731 -29.628211 37.701726 -8.225398 1.169173 -2.508672 14.888248 -7.334450 -27.435973 3.927600 7.125000 0.000000 0.000000 21.443400 -54.137000 -4.990900 
-1.089379 18.182900 5.534846 -2.127857 -5.456745 1.827591 -1.306715 4.245692 4.093967 -11.503413 -5.948008 10.324928 -1.924188 -5.073173 -10.963542 -6.444628 24.314808 -3.551462 0.019100 -0.892900 -2.454200 -1.720274 -4.266375 2.843675 18.137252 4.196143 3.510761 1.245908 0.541213 1.783082 1.203534 -6.700069 -7.213797 -0.160100 -2.578100 7.106400 5.170696 3.196287 -5.530531 -8.241286 3.739742 16.305398 -0.963691 2.151382 -10.013997 2.584587 -3.611068 -22.967899 7.015703 -6.347529 22.198657 0.493200 -1.959700 8.637100 3.328381 -7.755634 0.129588 -92.419001 3.983234 20.691675 19.203782 -28.127439 -4.760011 0.750720 0.209900 14.665853 10.005593 -29.559655 -4.702500 -7.125000 0.000000 0.000000 -12.510100 0.248300 12.764200 -3.436509 9.605264 2.581831 94.647612 -11.680959 24.557006 -29.665260 37.739450 -8.257197 1.182022 -2.513204 14.916883 -7.149839 -27.779413 3.903200 7.125000 0.000000 0.000000 21.812400 -54.425200 -5.240000 
-1.090776 18.182801 5.533449 -2.116028 -5.422018 1.812089 -1.309717 4.245287 4.094027 -11.503426 -5.907951 10.322850 -1.921347 -5.082472 -10.987558 -6.437633 24.301596 -3.489644 0.021600 -0.949100 -2.608700 -1.724991 -4.269117 2.845319 18.131618 4.160611 3.512234 1.245095 0.541567 1.784339 1.198926 -6.679360 -7.207668 -0.164900 -2.616200 7.211900 5.208401 3.229328 -5.550814 -8.273590 3.783884 16.342370 -0.976917 2.173134 -10.007960 2.521108 -3.644177 -22.999076 7.009091 -6.380409 22.234860 0.491700 -1.976500 8.654100 3.358512 -7.743088 0.112850 -92.175855 3.085777 21.164707 17.818803 -26.571198 -4.280001 0.788791 0.200968 14.143661 11.920703 -30.831974 -5.880500 -7.125000 0.000000 0.000000 -11.525500 -1.267700 12.021400 -3.441321 9.593640 2.584366 94.700255 -11.709008 24.496112 -29.711475 37.783264 -8.280666 1.190390 -2.513136 14.963331 -7.002657 -27.866862 3.855900 7.125000 0.000000 0.000000 22.002600 -54.485900 -5.322400 
-1.093871 18.181802 5.532051 -2.136881 -5.386595 1.793164 -1.309615 4.248141 4.093437 -11.464327 -5.868174 10.330607 -1.917676 -5.087872 -11.006026 -6.430361 24.288314 -3.413096 0.020700 -0.928800 -2.553000 -1.730196 -4.268581 2.841957 18.171143 4.113989 3.534895 1.243935 0.543007 1.786529 1.184106 -6.619953 -7.218115 -0.177600 -2.714900 7.485900 5.255853 3.257813 -5.541866 -8.304076 3.824277 16.333241 -1.005980 2.187803 -10.002888 2.486143 -3.671104 -23.006514 7.077855 -6.425281 22.286326 0.506100 -1.989200 8.669600 3.353705 -7.758093 0.123191 -92.504263 3.641780 20.352610 18.639947 -27.534825 -4.602559 0.779818 0.207342 14.925230 11.828595 -30.906366 -5.854000 -7.125000 0.000000 0.000000 -11.574900 -1.341000 12.089800 -3.433466 9.604292 2.584513 94.792292 -11.745736 24.392022 -29.737199 37.807407 -8.283178 1.198981 -2.509873 15.032902 -6.785897 -27.785697 3.755100 7.125000 0.000000 0.000000 22.162900 -54.383400 -5.307600 
-1.097565 18.181103 5.530554 -2.190972 -5.356111 1.776244 -1.304433 4.253710 4.095866 -11.389828 -5.828288 10.322877 -1.913597 -5.088669 -11.013608 -6.418568 24.258071 -3.320868 0.022300 -0.963000 -2.647100 -1.730557 -4.266867 2.840040 18.248185 4.070092 3.560365 1.243288 0.545142 1.788162 1.176120 -6.588791 -7.229377 -0.182300 -2.750100 7.583700 5.315249 3.286685 -5.523673 -8.279743 3.866341 16.353508 -1.062809 2.202643 -10.015315 2.385815 -3.712457 -23.099613 7.220929 -6.496033 22.414683 0.540700 -2.003900 8.718800 3.354193 -7.761441 0.128440 -92.609826 3.796079 20.115083 18.938877 -27.888748 -4.728271 0.778120 0.211245 15.194828 11.932988 -31.017041 -5.932200 -7.125000 0.000000 0.000000 -11.522000 -1.472500 12.058300 -3.431329 9.605551 2.584482 94.837939 -11.746329 24.353294 -29.741501 37.808432 -8.275561 1.206455 -2.505907 14.970780 -6.645397 -27.705677 3.685100 7.125000 0.000000 0.000000 22.251900 -54.290500 -5.278900 
-1.100760 18.179606 5.529056 -2.168735 -5.322961 1.760046 -1.309023 4.252684 4.092657 -11.390563 -5.791410 10.318291 -1.910455 -5.092963 -11.024738 -6.399805 24.202805 -3.274466 0.022300 -0.963200 -2.647600 -1.736990 -4.267099 2.836152 18.243091 4.028783 3.571075 1.242472 0.545389 1.789917 1.170399 -6.566801 -7.239459 -0.187000 -2.785400 7.681700 5.320574 3.303820 -5.487318 -8.331686 3.893759 16.332156 -1.064598 2.214822 -10.034950 2.304629 -3.737235 -23.184291 7.351371 -6.548245 22.574942 0.574000 -2.009300 8.774300 3.365151 -7.760656 0.134377 -92.627702 3.777151 20.038942 18.952154 -27.912818 -4.744591 0.781399 0.209820 15.269096 12.124647 -31.273471 -6.077900 -7.125000 0.000000 0.000000 -11.435200 -1.754700 12.019100 -3.421849 9.606496 2.588188 94.857531 -11.752404 24.372197 -29.723486 37.788282 -8.256773 1.216952 -2.501571 14.851407 -6.472533 -27.653181 3.605200 7.125000 0.000000 0.000000 22.388400 -54.217100 -5.272800 
